<?xml version="1.0" standalone="no"?>
<!DOCTYPE svg PUBLIC "-//W3C//DTD SVG 20010904//EN"
 "http://www.w3.org/TR/2001/REC-SVG-20010904/DTD/svg10.dtd">
<svg version="1.0" xmlns="http://www.w3.org/2000/svg"
 width="477.000000pt" height="477.000000pt" viewBox="0 0 477.000000 477.000000"
 preserveAspectRatio="xMidYMid meet">
<metadata>
Created by potrace 1.14, written by Peter Selinger 2001-2017
</metadata>
<g transform="translate(0.000000,477.000000) scale(0.100000,-0.100000)"
fill="#000000" stroke="none">
<path d="M2218 4590 c-716 -75 -1313 -551 -1537 -1226 -22 -65 -50 -164 -63
-219 l-22 -100 -3 -1437 -4 -1438 1801 0 1801 0 -3 1418 -3 1417 -23 113 c-27
136 -87 322 -140 435 -252 538 -748 917 -1330 1017 -134 23 -353 32 -474 20z
m449 -389 c466 -95 862 -419 1044 -855 41 -100 85 -258 95 -342 l7 -54 -527 0
-526 0 0 -400 0 -400 -355 0 -355 0 -2 -402 -3 -403 -85 0 c-47 0 -205 -1
-352 -2 l-268 -3 0 -400 0 -400 -195 0 -196 0 3 1203 c3 1115 5 1209 22 1297
89 463 379 847 791 1045 150 72 280 109 490 139 72 10 314 -3 412 -23z m1153
-1841 l0 -220 -342 2 -343 3 -3 218 -2 217 345 0 345 0 0 -220z m0 -794 l0
-213 -697 -5 c-384 -3 -701 -4 -705 -1 -5 2 -8 101 -8 219 l0 214 705 0 705 0
0 -214z m0 -806 l0 -220 -1055 0 -1055 0 0 215 0 214 58 4 c31 2 506 4 1055 5
l997 2 0 -220z"/>
</g>
</svg>
