<?xml version="1.0" standalone="no"?>
<!DOCTYPE svg PUBLIC "-//W3C//DTD SVG 20010904//EN"
 "http://www.w3.org/TR/2001/REC-SVG-20010904/DTD/svg10.dtd">
<svg version="1.0" xmlns="http://www.w3.org/2000/svg"
 width="300.000000pt" height="300.000000pt" viewBox="0 0 300.000000 300.000000"
 preserveAspectRatio="xMidYMid meet">
<metadata>
Created by potrace 1.14, written by Peter Selinger 2001-2017
</metadata>
<g transform="translate(0.000000,300.000000) scale(0.100000,-0.100000)"
fill="#000000" stroke="none">
<path d="M1309 2904 c-175 -31 -367 -114 -500 -213 -128 -97 -272 -268 -341
-406 -38 -74 -77 -189 -101 -290 -20 -87 -21 -121 -24 -1002 l-4 -913 1161 0
1161 0 -4 918 c-3 831 -5 924 -21 992 -59 252 -166 443 -343 611 -220 210
-500 321 -802 318 -58 0 -140 -7 -182 -15z m288 -225 c317 -35 584 -221 727
-506 41 -82 86 -228 86 -279 l0 -34 -335 0 -335 0 0 -255 0 -255 -230 0 -230
0 0 -260 0 -260 -225 0 -225 0 -2 -258 -3 -257 -120 0 -120 0 0 795 c0 793 0
795 23 880 99 375 407 643 792 690 95 11 92 11 197 -1z m823 -1194 l0 -135
-220 0 -220 0 0 135 0 135 220 0 220 0 0 -135z m0 -510 l0 -135 -450 0 -450 0
0 135 0 135 450 0 450 0 0 -135z m0 -515 l0 -140 -675 0 -675 0 0 135 0 135
333 3 c182 1 486 3 675 5 l342 2 0 -140z"/>
</g>
</svg>
