<?xml version="1.0" standalone="no"?>
<!DOCTYPE svg PUBLIC "-//W3C//DTD SVG 20010904//EN"
 "http://www.w3.org/TR/2001/REC-SVG-20010904/DTD/svg10.dtd">
<svg version="1.0" xmlns="http://www.w3.org/2000/svg"
 width="446.000000pt" height="446.000000pt" viewBox="0 0 446.000000 446.000000"
 preserveAspectRatio="xMidYMid meet">
<metadata>
Created by potrace 1.14, written by Peter Selinger 2001-2017
</metadata>
<g transform="translate(0.000000,446.000000) scale(0.100000,-0.100000)"
fill="#000000" stroke="none">
<path d="M1965 4430 c-451 -70 -845 -293 -1135 -645 -159 -194 -288 -449 -350
-695 -57 -223 -57 -213 -57 -1708 l0 -1367 1803 0 1804 0 1 25 c2 68 1 2626
-1 2699 -2 46 -6 102 -11 125 -4 22 -9 59 -12 81 -3 22 -11 63 -17 90 -7 28
-13 57 -15 65 -2 8 -15 53 -30 100 -114 359 -368 703 -680 921 -236 166 -465
256 -795 314 -19 4 -114 8 -210 10 -133 2 -204 -2 -295 -15z m439 -364 c17 -3
49 -8 71 -11 85 -13 234 -59 337 -105 352 -156 645 -476 767 -837 29 -84 71
-258 71 -295 0 -17 -32 -18 -525 -18 l-524 0 0 -396 c0 -218 -2 -398 -5 -401
-2 -2 -163 -5 -358 -6 l-353 -2 -2 -380 c-1 -209 -2 -389 -2 -400 -1 -20 -8
-20 -342 -20 -187 0 -346 -3 -352 -7 -7 -4 -10 -133 -10 -402 l0 -395 -191 2
-190 2 0 1150 c0 1038 3 1254 19 1335 59 310 197 574 409 783 229 224 544 375
844 403 37 4 68 7 69 9 6 4 237 -3 267 -9z m1256 -1852 l0 -214 -67 0 c-38 -1
-192 -1 -343 -1 l-275 0 -1 203 c0 112 1 208 3 214 3 9 99 12 344 12 l339 0 0
-214z m-2 -801 l2 -211 -517 -2 c-285 0 -597 -2 -694 -2 -96 -1 -180 1 -185 4
-7 5 -11 351 -5 413 1 7 240 10 698 9 l698 0 3 -211z m2 -803 l0 -220 -1055 0
-1055 0 0 214 0 215 53 3 c28 2 503 4 1055 6 l1002 2 0 -220z"/>
</g>
</svg>
